<?xml version="1.0" standalone="no"?>
<!DOCTYPE svg PUBLIC "-//W3C//DTD SVG 20010904//EN"
 "http://www.w3.org/TR/2001/REC-SVG-20010904/DTD/svg10.dtd">
<svg version="1.0" xmlns="http://www.w3.org/2000/svg"
 width="150.000000pt" height="150.000000pt" viewBox="0 0 150.000000 150.000000"
 preserveAspectRatio="xMidYMid meet">

<g transform="translate(0.000000,150.000000) scale(0.100000,-0.100000)"
fill="#FFFFFF" stroke="none">
<path d="M515 1488 c-4 -13 -35 -166 -35 -174 0 -2 -26 -17 -57 -34 -32 -17
-66 -36 -75 -42 -14 -10 -33 -7 -102 15 -47 16 -88 29 -92 30 -3 1 -39 -54
-80 -123 l-73 -125 70 -65 71 -65 0 -85 0 -85 -71 -65 -71 -65 19 -30 c10 -16
44 -73 74 -127 l57 -96 92 30 93 31 46 -31 c25 -17 58 -36 72 -41 19 -8 28
-20 33 -48 3 -21 12 -63 18 -93 l13 -55 94 -3 94 -3 68 69 69 69 -13 77 c-12
70 -15 76 -33 70 -33 -10 -38 -19 -55 -100 l-16 -77 -60 0 c-67 1 -64 -3 -85
106 -8 38 -17 60 -28 64 -56 19 -123 55 -156 83 l-38 33 -71 -23 c-40 -12 -76
-24 -82 -26 -5 -2 -23 19 -39 48 l-29 52 58 53 58 53 0 131 c0 107 -3 134 -15
143 -8 6 -35 29 -58 50 l-44 39 30 54 c15 29 33 52 39 50 5 -3 42 -15 81 -27
l70 -23 55 42 c29 23 76 50 104 60 53 20 55 24 75 124 l11 57 63 0 63 0 12
-69 c15 -82 22 -93 81 -115 25 -10 69 -36 99 -58 l54 -41 79 26 79 25 14 -24
c8 -13 22 -36 32 -51 l16 -27 -62 -56 -62 -55 7 -73 c4 -39 8 -72 10 -72 2 0
26 5 54 11 l52 11 -6 42 c-6 41 -6 41 64 100 39 33 70 64 70 69 0 5 -32 65
-71 133 l-70 122 -93 -33 -92 -33 -24 20 c-14 11 -46 31 -72 44 -50 25 -51 27
-68 119 -20 105 -3 95 -166 95 -107 0 -146 -3 -149 -12z"/>
<path d="M577 1066 c-78 -28 -139 -92 -163 -173 -18 -59 -18 -87 1 -150 20
-67 80 -134 147 -163 71 -30 166 -25 232 14 190 111 163 398 -44 471 -52 18
-122 19 -173 1z m167 -114 c51 -30 71 -67 71 -132 0 -72 -21 -105 -88 -138
-37 -19 -55 -22 -87 -17 -74 13 -130 79 -130 155 0 121 127 192 234 132z"/>
<path d="M1165 710 c-100 -20 -162 -67 -205 -154 -41 -83 -44 -164 -10 -244
l23 -53 -92 -87 c-50 -48 -91 -92 -91 -98 0 -5 15 -25 33 -42 l34 -33 94 97
95 96 45 -23 c60 -32 173 -33 240 -3 130 60 196 206 155 346 -38 131 -188 224
-321 198z m112 -111 c82 -31 134 -130 112 -214 -23 -86 -90 -137 -179 -137
-190 2 -248 265 -76 343 46 21 101 24 143 8z"/>
</g>
</svg>
